Coordinates
version=1
nRows=14
nColumns=28
inDegrees=yes

Units are S.I. units (second, meters, Newtons, ...)
Angles are in degrees.

endheader
time	pelvis_tilt	pelvis_list	pelvis_rotation	pelvis_tx	pelvis_ty	pelvis_tz	hip_flexion_r	hip_adduction_r	hip_rotation_r	knee_angle_r	ankle_angle_r	subtalar_angle_r	mtp_angle_r	hip_flexion_l	hip_adduction_l	hip_rotation_l	knee_angle_l	socket_flexion	socket_adduction	socket_rotation	socket_tx	socket_ty	socket_tz	foot_flex	lumbar_extension	lumbar_bending	lumbar_rotation
      0.26666667	      0.49849515	      7.07236901	     -2.77242401	     -0.38724468	      0.98370380	      0.22823953	     13.91972384	    -12.39978732	      0.96440232	    -64.51711800	    -14.46931038	    -10.72060038	     19.55951697	      9.42100557	      8.22754505	      2.08073161	    -26.47458612	     -5.10941992	      0.00000000	      0.00000000	      0.00000000	      0.00000000	      0.00000000	      5.08371573	     -7.62538841	     -8.30160115	     -3.76040303
      0.27083333	      0.53806735	      6.87098620	     -2.73579809	     -0.38170332	      0.98471830	      0.22803979	     14.68590476	    -12.22475830	      0.95760537	    -64.59763877	    -13.79632132	    -11.03905617	     19.52906760	      8.80718100	      8.05223147	      2.25154085	    -26.11679068	     -5.09079724	      0.00000000	      0.00000000	      0.00000000	      0.00000000	      0.00000000	      5.05646584	     -7.73277809	     -8.03866527	     -3.92811357
      0.27500000	      0.56269864	      6.65579077	     -2.71929317	     -0.37591670	      0.98579052	      0.22803672	     15.39426153	    -11.96457260	      1.00077490	    -64.58171287	    -12.80644684	    -11.54225961	     19.46001419	      8.11349791	      7.84186040	      2.42112751	    -25.53374153	     -4.96258773	      0.00000000	      0.00000000	      0.00000000	      0.00000000	      0.00000000	      5.08837049	     -7.75304071	     -7.76044207	     -4.21105748
      0.27916667	      0.65731397	      6.50042094	     -2.73667211	     -0.37002646	      0.98696705	      0.22811010	     16.01410834	    -11.78691197	      1.03842346	    -64.49901997	    -11.98236765	    -12.05566324	     19.23173086	      7.25772020	      7.68976446	      2.57236844	    -24.69596226	     -4.67499315	      0.00000000	      0.00000000	      0.00000000	      0.00000000	      0.00000000	      5.17051041	     -7.84410533	     -7.56578720	     -4.57466477
      0.28333333	      0.74191727	      6.30860737	     -2.73162174	     -0.36419433	      0.98812856	      0.22802634	     16.59755291	    -11.56705714	      1.07203993	    -64.30481523	    -11.17864097	    -12.50303288	     19.02195372	      6.44507254	      7.51427900	      2.76521531	    -23.94354414	     -4.43602158	      0.00000000	      0.00000000	      0.00000000	      0.00000000	      0.00000000	      5.18207161	     -7.93853428	     -7.27929099	     -4.82032492
      0.28750000	      0.78116994	      6.15053549	     -2.68403394	     -0.35872857	      0.98896965	      0.22785041	     17.32205800	    -11.45572367	      0.99057082	    -64.20431163	    -10.87174307	    -12.65372972	     18.97631300	      5.84047038	      7.37803664	      2.91866850	    -23.65319124	     -4.54640231	      0.00000000	      0.00000000	      0.00000000	      0.00000000	      0.00000000	      5.12381107	     -8.04759357	     -7.09220321	     -4.89311647
      0.29166667	      1.42963902	      5.98283808	     -2.86501732	     -0.35219827	      0.99139732	      0.22837192	     17.09845998	    -11.18420591	      1.13681757	    -63.66395530	     -9.81613428	    -13.34964295	     17.56542591	      3.82416352	      7.19054766	      3.11492562	    -21.12214757	     -3.17208623	      0.00000000	      0.00000000	      0.00000000	      0.00000000	      0.00000000	      5.16879618	     -8.69931135	     -6.93601680	     -5.32160567
      0.29583333	      1.38391954	      5.71191607	     -2.79798739	     -0.34663936	      0.99223554	      0.22828784	     17.78950414	    -10.85660410	      1.09832614	    -63.35522034	     -9.03499286	    -13.63133072	     17.50108317	      3.27825790	      6.91200636	      3.28887222	    -20.75623647	     -3.21036381	      0.00000000	      0.00000000	      0.00000000	      0.00000000	      0.00000000	      5.14133819	     -8.69296167	     -6.60598035	     -5.43160265
      0.30000000	      1.36580972	      5.45590468	     -2.73100621	     -0.34099218	      0.99312925	      0.22825639	     18.41375561	    -10.53260023	      1.05842146	    -62.98197686	     -8.26693601	    -14.00238737	     17.27483651	      2.61161857	      6.64254671	      3.48211922	    -20.08050917	     -3.01809331	      0.00000000	      0.00000000	      0.00000000	      0.00000000	      0.00000000	      5.16808606	     -8.70307639	     -6.28151353	     -5.72105496
      0.30416667	      1.78252900	      5.25254450	     -2.83573634	     -0.33489581	      0.99480225	      0.22853355	     18.47459469	    -10.25894670	      1.10490933	    -62.42039037	     -7.49328058	    -14.17004139	     15.66933685	      1.10318206	      6.42628689	      3.65295792	    -18.32022743	     -2.18131714	      0.00000000	      0.00000000	      0.00000000	      0.00000000	      0.00000000	      5.13960310	     -9.15963491	     -6.06297201	     -5.90682779
      0.30833333	      1.68114305	      4.97830224	     -2.72816624	     -0.32937136	      0.99549124	      0.22844139	     19.14461878	     -9.91101855	      1.03193112	    -61.92789489	     -6.85178781	    -14.45448285	     15.64790383	      0.62944753	      6.13307387	      3.83704600	    -17.98722944	     -2.26171806	      0.00000000	      0.00000000	      0.00000000	      0.00000000	      0.00000000	      5.01644901	     -9.09260332	     -5.73119028	     -6.04017489
      0.31250000	      1.78487285	      4.71043277	     -2.64417509	     -0.32354969	      0.99658324	      0.22845826	     19.49575435	     -9.56793403	      0.93941961	    -61.28958967	     -6.33337725	    -15.03132361	     15.04846422	     -0.34094790	      5.83580066	      4.11903761	    -16.74251956	     -1.68624298	      0.00000000	      0.00000000	      0.00000000	      0.00000000	      0.00000000	      5.06611285	     -9.23353747	     -5.37783512	     -6.64648273
      0.31666667	      1.73220112	      4.51865709	     -2.58299324	     -0.31809076	      0.99710437	      0.22840987	     20.13845854	     -9.34133735	      0.87501154	    -60.76355926	     -5.90458729	    -15.19037182	     15.02867867	     -0.84265168	      5.63291665	      4.26534008	    -16.51158973	     -1.88897412	      0.00000000	      0.00000000	      0.00000000	      0.00000000	      0.00000000	      4.97067123	     -9.21370023	     -5.14910414	     -6.65967700
      0.32083333	      1.59582724	      4.14547472	     -2.46575061	     -0.31259070	      0.99778312	      0.22843376	     20.70379715	     -8.81903454	      0.80267450	    -59.99551734	     -5.11008347	    -15.53062106	     14.96170687	     -1.29763969	      5.21462905	      4.45647783	    -16.05205700	     -1.83555894	      0.00000000	      0.00000000	      0.00000000	      0.00000000	      0.00000000	      4.87260394	     -9.12380803	     -4.72615188	     -6.79190348
